<?xml version="1.0" standalone="no"?>
<!DOCTYPE svg PUBLIC "-//W3C//DTD SVG 20010904//EN"
 "http://www.w3.org/TR/2001/REC-SVG-20010904/DTD/svg10.dtd">
<svg version="1.0" xmlns="http://www.w3.org/2000/svg"
 width="1280.000000pt" height="869.000000pt" viewBox="0 0 1280.000000 869.000000"
 preserveAspectRatio="xMidYMid meet">

<g transform="translate(0.000000,869.000000) scale(0.100000,-0.100000)"
fill="#000000" stroke="none">
<path d="M3672 5089 c-54 -20 -51 -102 5 -115 29 -7 123 -90 123 -109 0 -6
-24 -34 -53 -63 l-53 -52 -87 85 c-75 73 -87 90 -87 119 0 36 -25 66 -56 66
-33 0 -64 -29 -64 -58 0 -36 9 -47 50 -65 19 -8 73 -54 120 -101 l84 -86 -59
-60 c-33 -33 -64 -60 -70 -60 -6 0 -50 39 -98 88 -64 64 -87 94 -87 113 0 54
-74 80 -104 37 -32 -45 -11 -91 45 -101 18 -4 93 -71 223 -201 l196 -195 2
-543 3 -543 21 -3 c17 -2 23 4 28 30 3 17 6 266 6 552 l-1 520 -96 98 -97 99
219 219 c121 121 227 220 235 220 30 0 60 30 60 60 0 36 -24 60 -60 60 -36 0
-60 -23 -60 -59 0 -19 -15 -41 -53 -79 -29 -29 -56 -52 -61 -52 -5 0 -28 20
-52 44 -31 32 -41 50 -37 65 6 25 -18 66 -44 73 -10 3 -29 1 -41 -3z"/>
<path d="M4148 5003 c-9 -10 -18 -26 -19 -36 -2 -10 -57 -71 -121 -135 l-118
-118 0 -129 0 -129 -35 34 c-19 19 -35 43 -35 55 0 56 -67 87 -103 47 -36 -40
-9 -102 44 -102 15 0 42 -19 76 -53 l53 -52 2 -570 3 -570 25 0 25 0 3 725 2
725 102 102 c88 88 107 103 135 103 38 0 63 22 63 56 0 52 -69 84 -102 47z"/>
<path d="M4306 4798 c-9 -12 -16 -33 -16 -47 0 -26 -85 -121 -107 -121 -8 0
-13 13 -13 30 0 37 -31 70 -65 70 -29 0 -65 -32 -65 -58 0 -30 29 -62 56 -62
19 0 52 -26 122 -95 l97 -94 -45 -45 -44 -46 -33 32 c-20 19 -33 42 -33 56 0
48 -70 70 -103 34 -37 -40 -7 -102 48 -102 12 0 34 -14 50 -30 l29 -30 -54
-55 -55 -56 -3 -383 c-2 -345 -1 -386 14 -400 12 -13 19 -14 30 -5 11 9 14 44
14 155 l0 143 61 62 c38 39 72 64 91 68 17 4 40 19 51 33 17 23 19 31 9 53
-13 29 -50 46 -80 38 -20 -5 -42 -42 -42 -71 0 -16 -70 -92 -84 -92 -3 0 -6
30 -6 68 l0 67 153 153 c99 99 160 152 173 152 47 0 72 71 36 103 -40 37 -102
11 -102 -41 0 -22 -28 -55 -130 -157 l-130 -130 0 80 0 80 163 163 c113 113
169 162 185 162 27 0 62 33 62 59 0 30 -33 64 -63 64 -36 0 -55 -18 -63 -58
-3 -18 -19 -46 -35 -61 l-29 -28 -60 59 c-33 33 -60 63 -60 68 0 17 106 109
132 114 39 8 54 32 49 80 -4 43 -79 58 -105 21z"/>
<path d="M3160 4640 c-11 -11 -20 -31 -20 -44 0 -27 42 -66 71 -66 11 0 80
-67 168 -162 l151 -163 0 -63 c0 -38 -4 -62 -10 -60 -5 2 -72 65 -149 141 -94
94 -137 144 -134 155 6 23 -32 62 -61 62 -27 0 -66 -34 -66 -58 0 -31 29 -62
58 -62 22 0 60 -32 195 -168 l167 -168 0 -77 c0 -42 -3 -77 -8 -77 -4 0 -42
35 -84 78 -51 52 -78 88 -83 110 -12 58 -86 71 -115 20 -13 -25 -13 -31 0 -55
11 -20 25 -29 46 -31 24 -2 54 -27 138 -111 l106 -108 0 -172 0 -171 25 0 25
0 0 421 0 421 -158 172 c-104 112 -159 179 -159 195 -4 55 -65 79 -103 41z"/>
<path d="M4934 4315 c-16 -40 -1 -45 141 -45 l136 0 -3 28 -3 27 -133 3 c-111
2 -133 0 -138 -13z"/>
<path d="M5315 4324 c-9 -4 -12 -320 -3 -329 1 -2 12 -5 23 -7 19 -3 20 3 20
167 0 143 -2 170 -15 172 -8 1 -19 0 -25 -3z"/>
<path d="M5548 4323 c-14 -4 -18 -18 -20 -71 l-3 -67 -50 -5 c-47 -5 -51 -8
-46 -40 0 -5 24 -10 51 -10 l50 0 0 -69 c0 -57 3 -69 18 -73 40 -11 42 -3 42
167 0 169 -2 176 -42 168z"/>
<path d="M5704 4321 c-2 -2 -4 -15 -4 -28 l0 -24 123 3 c118 3 122 4 125 26 2
12 -2 23 -10 24 -28 4 -230 3 -234 -1z"/>
<path d="M6507 4318 c-80 -11 -133 -65 -139 -140 -3 -29 0 -33 23 -36 24 -3
27 1 34 34 4 22 19 49 37 66 27 25 37 28 100 28 69 0 69 0 66 27 -3 22 -8 26
-39 27 -20 1 -57 -2 -82 -6z"/>
<path d="M6750 4297 l0 -28 123 3 c121 3 122 3 122 27 0 23 -1 23 -123 25
l-122 1 0 -28z"/>
<path d="M7251 4320 c-75 -18 -131 -87 -131 -159 1 -104 78 -171 198 -171 60
0 63 1 60 23 -3 20 -10 23 -71 28 -56 5 -73 10 -95 33 -23 22 -27 35 -27 82 0
50 3 58 33 85 27 24 41 29 85 29 60 0 80 10 75 36 -2 15 -13 19 -48 21 -25 1
-60 -2 -79 -7z"/>
<path d="M7484 4321 c-2 -2 -4 -15 -4 -28 0 -22 2 -23 94 -23 87 0 96 -2 110
-22 20 -29 20 -41 -1 -66 -15 -18 -32 -22 -108 -24 l-90 -3 -3 -82 -3 -83 31
0 30 0 0 61 0 60 37 -3 c33 -3 42 -10 77 -60 35 -51 44 -58 73 -58 l34 0 -43
61 c-30 43 -39 63 -30 66 7 3 24 17 38 31 60 65 14 171 -74 173 -20 0 -66 1
-100 2 -35 1 -66 0 -68 -2z"/>
<path d="M7892 4322 c-17 -3 -22 -9 -20 -25 3 -21 8 -22 126 -25 l122 -3 0 26
c0 14 -6 25 -12 25 -104 4 -198 4 -216 2z"/>
<path d="M8368 4322 l-128 -3 0 -24 0 -25 135 0 135 0 0 24 c0 14 -3 26 -7 28
-5 2 -65 2 -135 0z"/>
<path d="M9423 4323 c-23 -4 -23 -6 -23 -169 l0 -164 25 0 25 0 0 170 c0 94
-1 169 -2 169 -2 -1 -13 -4 -25 -6z"/>
<path d="M8932 4299 c3 -18 11 -20 74 -22 75 -3 104 -16 104 -48 0 -36 -27
-49 -106 -49 -72 0 -74 -1 -74 -25 0 -25 1 -25 90 -25 78 0 91 -2 100 -19 14
-27 13 -37 -6 -55 -12 -12 -36 -16 -100 -16 -83 0 -84 0 -84 -25 0 -25 0 -25
95 -25 90 0 96 1 127 28 41 37 43 85 5 118 l-26 22 20 38 c25 49 24 56 -7 93
-25 31 -27 31 -121 31 -90 0 -94 -1 -91 -21z"/>
<path d="M9660 4295 l0 -26 138 3 c134 3 137 4 140 26 3 22 3 22 -137 22
l-141 0 0 -25z"/>
<path d="M5040 4100 l0 -110 30 0 30 0 0 110 0 110 -30 0 -30 0 0 -110z"/>
<path d="M8350 4100 l0 -110 25 0 25 0 0 110 0 110 -25 0 -25 0 0 -110z"/>
<path d="M9770 4100 l0 -110 30 0 30 0 0 110 0 110 -30 0 -30 0 0 -110z"/>
<path d="M5700 4155 l0 -25 110 0 110 0 0 25 0 25 -110 0 -110 0 0 -25z"/>
<path d="M6750 4155 l0 -25 110 0 110 0 0 25 0 25 -110 0 -110 0 0 -25z"/>
<path d="M7870 4155 l0 -25 115 0 115 0 0 25 0 25 -115 0 -115 0 0 -25z"/>
<path d="M6566 4127 c-11 -57 -45 -80 -129 -86 -65 -5 -72 -8 -75 -28 -3 -22
0 -23 66 -23 39 0 85 7 105 15 44 18 86 71 94 119 5 35 4 36 -25 36 -26 0 -31
-4 -36 -33z"/>
<path d="M5700 4015 l0 -25 126 0 c124 0 125 0 122 23 -3 21 -7 22 -125 25
l-123 3 0 -26z"/>
<path d="M6750 4015 l0 -25 126 0 c124 0 125 0 122 23 -3 21 -7 22 -125 25
l-123 3 0 -26z"/>
<path d="M7870 4015 l0 -25 125 0 125 0 0 25 0 25 -125 0 -125 0 0 -25z"/>
</g>
</svg>
