<?xml version="1.0" standalone="no"?>
<!DOCTYPE svg PUBLIC "-//W3C//DTD SVG 20010904//EN"
 "http://www.w3.org/TR/2001/REC-SVG-20010904/DTD/svg10.dtd">
<svg version="1.0" xmlns="http://www.w3.org/2000/svg"
 width="2667.000000pt" height="2667.000000pt" viewBox="0 0 2667.000000 2667.000000"
 preserveAspectRatio="xMidYMid meet">

<g transform="translate(0.000000,2667.000000) scale(0.100000,-0.100000)"
fill="#000000" stroke="none">
<path d="M12856 19519 c-10 -6 -33 -43 -51 -83 -53 -115 -86 -137 -315 -210
-596 -190 -876 -360 -1310 -795 -542 -543 -798 -1073 -887 -1831 -19 -171 -13
-562 12 -720 82 -522 260 -953 582 -1405 103 -146 143 -213 143 -243 0 -13
-31 -76 -69 -140 -118 -199 -171 -358 -171 -509 0 -126 26 -178 128 -257 302
-232 846 -295 1457 -170 326 67 443 80 867 94 372 12 532 31 768 91 130 32
354 106 510 168 236 94 502 241 479 265 -10 10 -110 -30 -309 -124 -334 -159
-588 -239 -907 -287 -115 -17 -438 -22 -527 -9 l-49 8 154 80 c575 298 782
421 1042 621 499 381 834 857 935 1327 60 279 54 534 -19 768 -17 53 -33 125
-36 159 l-6 63 59 26 c33 14 137 52 231 85 95 32 181 63 190 69 22 14 -12 11
-237 -21 -192 -27 -322 -29 -370 -7 -19 8 -82 50 -140 93 -58 42 -145 97 -195
121 -170 82 -405 147 -650 179 -66 9 -165 22 -221 30 -214 30 -307 98 -244
178 25 31 262 221 560 447 514 391 623 495 768 736 182 303 158 669 -57 885
-50 49 -81 71 -125 88 -91 34 -188 44 -312 31 -256 -26 -269 -33 -520 -284
-335 -335 -478 -511 -739 -906 -301 -456 -599 -964 -903 -1543 -133 -251 -197
-357 -221 -365 -29 -10 -2 146 89 513 50 204 147 602 216 885 201 829 405
1605 428 1628 3 2 160 7 348 11 189 3 349 10 356 15 11 6 9 13 -9 29 -21 19
-21 21 -3 34 10 7 25 13 33 14 12 0 10 3 -4 9 -11 5 -156 6 -325 3 -227 -4
-311 -3 -328 6 -19 10 -22 20 -22 67 0 85 -24 112 -74 83z m1960 -340 c50 -24
81 -62 128 -156 59 -119 71 -168 70 -278 0 -82 -5 -112 -26 -167 -101 -267
-363 -558 -893 -993 -226 -184 -302 -251 -413 -359 -105 -102 -122 -128 -122
-184 0 -106 111 -150 490 -197 237 -29 398 -57 490 -86 189 -59 460 -232 460
-294 0 -21 -107 -67 -275 -120 -310 -96 -380 -122 -765 -280 -545 -225 -669
-279 -948 -415 -288 -141 -420 -213 -683 -371 -235 -140 -362 -209 -390 -209
-19 0 -20 4 -14 53 25 200 206 755 356 1094 326 736 1016 1873 1456 2397 103
122 282 299 368 364 103 78 249 146 400 186 157 42 247 46 311 15z m-2137 -18
c32 -20 -22 -294 -210 -1056 -255 -1036 -481 -1974 -625 -2595 -92 -397 -135
-559 -165 -630 -15 -36 -75 -97 -285 -295 -147 -137 -269 -251 -273 -253 -11
-4 -163 194 -240 313 -177 272 -382 756 -441 1040 -39 190 -51 891 -19 1095 6
37 22 86 40 116 21 37 29 65 29 99 0 58 41 165 155 402 154 319 345 658 454
802 113 152 357 374 574 524 373 259 916 495 1006 438z m2451 -2860 c36 -52
80 -156 97 -232 13 -55 17 -123 17 -264 0 -287 -36 -456 -144 -682 -121 -254
-267 -458 -485 -682 -304 -311 -604 -527 -1040 -746 -233 -118 -382 -180 -517
-217 -77 -21 -103 -23 -353 -23 l-270 0 -95 33 c-115 38 -456 205 -551 268
-116 77 -140 142 -115 313 13 86 124 611 143 675 10 34 104 126 205 202 308
230 987 592 1566 833 379 158 1452 550 1509 551 6 0 21 -13 33 -29z m-3940
-2201 c21 -11 108 -76 194 -144 267 -215 475 -340 795 -480 205 -90 285 -132
276 -146 -26 -41 -657 -89 -927 -70 -328 23 -555 115 -625 253 -22 44 -25 60
-20 112 11 118 139 431 193 474 33 26 64 27 114 1z"/>
<path d="M18367 12076 c-149 -63 -192 -134 -185 -312 4 -116 30 -185 93 -249
131 -130 360 -105 465 52 63 96 90 263 54 338 -22 48 -125 142 -181 167 -74
33 -174 35 -246 4z"/>
<path d="M9052 12016 c-19 -6 -49 -26 -68 -44 -66 -63 -131 -233 -121 -318 6
-61 50 -147 99 -196 110 -111 259 -125 390 -38 153 102 198 338 91 478 -74 98
-278 160 -391 118z"/>
<path d="M16000 10584 l0 -1375 171 3 c166 3 171 4 190 27 14 17 19 39 19 81
0 66 7 90 25 90 7 0 64 -31 127 -69 252 -152 325 -176 538 -176 157 0 203 9
347 64 197 76 387 251 486 448 32 62 61 168 78 278 16 108 16 343 0 435 -62
351 -326 631 -686 727 -85 22 -120 26 -235 26 -117 0 -147 -4 -223 -27 -114
-34 -199 -78 -321 -165 -54 -39 -102 -71 -106 -71 -18 0 -22 81 -27 568 l-5
512 -189 0 -189 0 0 -1376z m1172 181 c216 -56 375 -221 424 -441 22 -102 15
-282 -14 -374 -51 -155 -155 -279 -299 -353 -87 -45 -185 -80 -254 -91 -51 -9
-178 27 -289 81 -172 83 -292 233 -336 418 -23 101 -15 255 19 353 79 227 254
381 479 422 69 12 191 5 270 -15z"/>
<path d="M12870 11859 c-262 -29 -430 -119 -675 -364 -262 -261 -358 -465
-396 -835 -36 -361 51 -679 263 -960 197 -263 475 -453 722 -496 127 -22 700
-15 796 10 91 23 268 112 373 186 104 75 274 248 339 345 115 173 193 371 224
565 26 162 16 379 -24 531 -107 404 -311 682 -652 888 -161 97 -322 130 -665
136 -121 2 -258 -1 -305 -6z m448 -370 c130 -14 200 -33 292 -79 499 -251 656
-973 319 -1472 -120 -177 -329 -321 -535 -369 -139 -31 -335 -29 -469 6 -208
54 -397 176 -517 334 -66 87 -142 246 -169 351 -33 132 -37 354 -10 488 64
307 235 540 486 662 156 75 376 104 603 79z"/>
<path d="M6540 10525 l0 -1317 713 5 c741 5 790 8 957 52 133 35 244 111 375
257 97 107 99 115 103 449 l4 285 -176 163 c-97 90 -176 166 -176 170 0 4 38
52 85 107 142 165 204 320 192 483 -6 93 -54 241 -103 322 -98 162 -323 289
-564 320 -48 5 -377 13 -747 16 l-663 6 0 -1318z m1145 964 c179 -13 260 -30
335 -70 73 -38 123 -92 159 -168 22 -48 26 -69 26 -146 -1 -80 -4 -97 -33
-156 -45 -95 -124 -173 -193 -193 -75 -22 -251 -34 -604 -41 -165 -3 -326 -8
-357 -11 l-58 -5 0 401 0 400 293 0 c160 0 355 -5 432 -11z m-9 -1094 c200
-19 364 -49 431 -80 69 -31 147 -111 181 -183 23 -49 27 -70 27 -147 0 -76 -5
-99 -27 -148 -35 -74 -113 -156 -187 -195 -112 -61 -140 -63 -652 -69 l-467
-5 -7 213 c-4 118 -5 296 -3 396 3 207 3 206 83 221 80 15 447 13 621 -3z"/>
<path d="M9952 11740 c-19 -4 -38 -12 -44 -18 -18 -18 -27 -91 -38 -312 -6
-118 -14 -234 -16 -257 -6 -48 3 -45 -167 -61 -140 -13 -142 -16 -142 -178 0
-168 -4 -164 186 -164 l139 0 0 -97 c0 -200 20 -792 31 -903 6 -63 21 -148 35
-190 53 -168 183 -295 364 -356 76 -26 321 -27 432 -1 121 28 150 69 131 182
-15 86 -37 133 -68 145 -15 6 -88 13 -163 16 -171 7 -207 16 -253 63 -70 70
-78 141 -79 699 l0 442 290 0 290 0 0 165 c0 91 -1 165 -2 166 -2 0 -126 6
-276 14 -151 7 -277 17 -281 21 -5 5 -17 143 -27 307 -17 284 -19 299 -38 307
-32 12 -267 20 -304 10z"/>
<path d="M19242 11737 c-19 -6 -40 -20 -47 -31 -17 -26 -32 -176 -41 -413 l-7
-182 -41 -5 c-22 -3 -84 -9 -136 -15 -112 -12 -125 -23 -136 -108 -10 -79 2
-193 21 -212 13 -13 45 -17 165 -19 l150 -3 0 -452 c0 -581 10 -676 85 -835
106 -224 345 -328 637 -277 131 23 228 56 250 86 18 24 19 29 4 92 -20 85 -47
139 -83 163 -24 16 -53 20 -199 24 -199 6 -194 4 -242 108 -57 122 -64 191
-69 665 l-5 427 311 0 311 0 0 165 c0 91 -1 165 -2 166 -2 0 -135 6 -296 14
-161 7 -296 15 -299 19 -3 3 -12 146 -19 318 -7 172 -13 314 -13 316 -2 7
-272 -2 -299 -11z"/>
<path d="M15555 11115 c-110 -24 -151 -48 -297 -172 l-88 -74 0 85 c0 71 -3
89 -19 105 -24 24 -107 33 -251 29 l-105 -3 -3 -937 -2 -938 190 0 190 0 0
378 c0 400 11 628 36 751 34 172 150 335 272 382 45 18 84 23 191 27 l134 4
-5 162 c-3 88 -8 168 -12 177 -17 40 -115 50 -231 24z"/>
<path d="M9000 10150 l0 -940 190 0 190 0 -2 938 -3 937 -187 3 -188 2 0 -940z"/>
<path d="M18250 10150 l0 -940 210 0 210 0 0 940 0 940 -210 0 -210 0 0 -940z"/>
</g>
</svg>
